# xmcd
#
# Track frame offsets:
#	150
#	13342
#	30135
#	44632
#	62815
#	78437
#	91797
#	105897
#	120017
#	136172
#	151662
#	166202
#	183055
#	197462
#
# Disc length: 2899 seconds
# Revision: 1
# Processed by: cddbd v1.5.2PL0 Copyright (c) Steve Scherf et al.
# Submitted via: dBpowerAMP V12.0
#
DISCID=920b510e
DTITLE=Various Artist - TM Century GoldDisc 1146N
DYEAR=1993
DGENRE=Country
TTITLE0=Restless Heart - Mending Fences
TTITLE1=Kathy Mattea - Standing Knee Deep In A River [Radio Edit]
TTITLE2=Mark Collie - Born To Love You
TTITLE3=Little Texas - I'd Rather Miss You
TTITLE4=Aaron Tippin - My Blue Angel
TTITLE5=Sammy Kershaw - She Don't Know She's Beautiful
TTITLE6=Hal Ketchum - Hearts Are Gonna Roll
TTITLE7=Tracy Lawrence - Alibis
TTITLE8=Alan Jackson - Tonight I Climbed The Wall
TTITLE9=Reba McIntire and Vince Gill - The Heart Won't Lie
TTITLE10=Doug Stone - Made For Lovin' You
TTITLE11=Trisha Yearwood - You Say You Will
TTITLE12=Lee Roy Parnell - Tender Moment
TTITLE13=Deborah Allen - Rock Me (In The Cradle Of Love) [Dance Mix]
EXTD=
EXTT0=
EXTT1=
EXTT2=
EXTT3=
EXTT4=
EXTT5=
EXTT6=
EXTT7=
EXTT8=
EXTT9=
EXTT10=
EXTT11=
EXTT12=
EXTT13=
PLAYORDER=
